<?xml version="1.0" encoding="UTF-8"?>
<svg version="1.1" xmlns="http://www.w3.org/2000/svg" width="512" height="512">
<path d="M0 0 C1.01545898 0.19867676 2.03091797 0.39735352 3.07714844 0.60205078 C52.9758035 10.58327711 96.53871388 34.88580573 133 70 C133.7940625 70.7528125 134.588125 71.505625 135.40625 72.28125 C140.75597303 77.46114055 145.38660506 83.16405541 150 89 C151.19109375 90.48306641 151.19109375 90.48306641 152.40625 91.99609375 C175.32205725 121.03970389 191.22147176 154.85685587 199.6875 190.8125 C199.97306763 191.99936401 199.97306763 191.99936401 200.2644043 193.21020508 C204.22851721 210.89052902 205.555362 228.61292655 205.4375 246.6875 C205.43293793 248.18546112 205.43293793 248.18546112 205.42828369 249.71368408 C205.35621635 265.78341917 204.43972751 281.25213186 201 297 C200.78037598 298.02625488 200.56075195 299.05250977 200.33447266 300.10986328 C191.83138831 338.85817193 174.61772522 375.56726438 149 406 C148.57138672 406.51739746 148.14277344 407.03479492 147.70117188 407.56787109 C137.18164284 420.2564129 126.03816903 431.86528878 113 442 C111.52660156 443.18142578 111.52660156 443.18142578 110.0234375 444.38671875 C70.29759115 476.0035908 18.37047678 496.93437939 -32.79296875 497.203125 C-33.69337387 497.21018463 -34.59377899 497.21724426 -35.52146912 497.22451782 C-72.98691069 497.45161655 -72.98691069 497.45161655 -90 494 C-91.01545898 493.80132324 -92.03091797 493.60264648 -93.07714844 493.39794922 C-142.9758035 483.41672289 -186.53871388 459.11419427 -223 424 C-223.7940625 423.2471875 -224.588125 422.494375 -225.40625 421.71875 C-230.75597303 416.53885945 -235.38660506 410.83594459 -240 405 C-240.7940625 404.01128906 -241.588125 403.02257812 -242.40625 402.00390625 C-266.9776499 370.86198961 -283.32468106 334.48759715 -291.25 295.6875 C-291.47671387 294.57942993 -291.47671387 294.57942993 -291.70800781 293.44897461 C-292.18439803 290.97158418 -292.60252786 288.49133778 -293 286 C-293.17805176 284.88423584 -293.35610352 283.76847168 -293.53955078 282.61889648 C-295.19998488 270.98027732 -295.3987437 259.43103747 -295.375 247.6875 C-295.37445618 246.6738739 -295.37391235 245.6602478 -295.37335205 244.61590576 C-295.33347417 228.41878779 -294.46747801 212.87491635 -291 197 C-290.78037598 195.97374512 -290.56075195 194.94749023 -290.33447266 193.89013672 C-279.82149525 145.98280374 -255.85138923 104.15003587 -222 69 C-221.2471875 68.2059375 -220.494375 67.411875 -219.71875 66.59375 C-214.53885945 61.24402697 -208.83594459 56.61339494 -203 52 C-202.01128906 51.2059375 -201.02257812 50.411875 -200.00390625 49.59375 C-167.66655102 24.07913264 -130.33332447 7.86607287 -90 0 C-89.17274414 -0.16661133 -88.34548828 -0.33322266 -87.49316406 -0.50488281 C-59.91781494 -5.80488028 -27.50199116 -5.57960557 0 0 Z " fill="#8E87AB" transform="translate(301,9)"/>
<path d="M0 0 C0.98033203 -0.00322266 1.96066406 -0.00644531 2.97070312 -0.00976562 C10.97300618 0.04919307 17.68449082 1.45095218 25.125 4.5 C26.03894531 4.86480469 26.95289063 5.22960937 27.89453125 5.60546875 C37.69855936 10.5018805 45.33130169 16.75721165 52.9765625 24.55078125 C53.94412548 25.52328339 54.912516 26.49496281 55.88168335 27.46586609 C57.88935231 29.48109806 59.89045074 31.50253485 61.88623047 33.52954102 C64.44528166 36.12856454 67.01534713 38.71633992 69.58963966 41.30025959 C72.05550658 43.77607231 74.51639025 46.25681164 76.9765625 48.73828125 C77.8993399 49.66844559 78.82211731 50.59860992 79.77285767 51.55696106 C81.04085709 52.84421333 81.04085709 52.84421333 82.33447266 54.1574707 C83.08072906 54.91357132 83.82698547 55.66967194 84.59585571 56.44868469 C87.82537124 59.95507243 87.47083638 62.64157688 87.3125 67.3125 C87.02375 68.158125 86.735 69.00375 86.4375 69.875 C86.06797913 72.31144666 86.06797913 72.31144666 87.44140625 73.98828125 C89.01465216 75.70347416 90.31022292 77.11563325 92.3125 78.3125 C95.3671344 78.01504496 96.13929258 77.50246942 98.25 75.1875 C100.3125 73.3125 100.3125 73.3125 102.5859375 73.36328125 C106.22132991 74.62889781 108.40704748 76.89799007 111 79.625 C111.48533203 80.11162109 111.97066406 80.59824219 112.47070312 81.09960938 C116.94227311 85.68219765 118.60906818 88.6625374 118.75 95.0625 C118.78996094 96.04734375 118.82992187 97.0321875 118.87109375 98.046875 C117.35186704 106.9285081 110.02477203 113.06044421 103.875 119.125 C103.04162109 119.96998047 102.20824219 120.81496094 101.34960938 121.68554688 C95.49723088 127.51016706 90.93518913 131.73877254 82.3125 131.75 C77.14835254 131.6159492 74.28137595 130.79736668 70.3125 127.3125 C69.466875 126.69375 68.62125 126.075 67.75 125.4375 C64.78808857 122.85532081 62.56225321 120.5547914 60.3125 117.3125 C60.20542456 112.92240704 62.48702186 110.50255596 65.3125 107.3125 C63.23863956 104.5587979 61.18184607 102.24752164 58.3125 100.3125 C55.65443301 100.16388603 53.51834463 100.51239308 50.9375 101.140625 C47.11551779 101.39087384 44.73822301 99.97498323 41.3125 98.3125 C35.46837969 104.63598096 29.62773624 110.96243181 23.8125 117.3125 C15.07456371 126.85235537 6.28894763 136.34618677 -2.54614258 145.79614258 C-7.01019837 150.57540959 -11.43167969 155.39142601 -15.84375 160.21875 C-19.6924367 164.41731731 -23.58300764 168.57726191 -27.48730469 172.72412109 C-30.27306013 175.68962736 -33.02140566 178.67035461 -35.671875 181.7578125 C-41.74542803 188.79268534 -47.18205012 194.39279308 -56.69921875 195.73828125 C-63.33127003 196.02952566 -68.17764371 194.99431986 -73.6875 191.3125 C-74.574375 190.77625 -75.46125 190.24 -76.375 189.6875 C-82.03852186 183.87090998 -84.03490687 177.81506572 -84.375 169.75 C-84.10996505 162.62987178 -82.49178514 158.49499482 -77.6875 153.3125 C-77.06101562 152.62800781 -76.43453125 151.94351563 -75.7890625 151.23828125 C-72.64951678 147.98084745 -69.3220514 144.98663112 -65.91015625 142.01953125 C-61.84995252 138.48025223 -57.91417874 134.8243018 -54 131.125 C-52.59152425 129.79907708 -51.18266522 128.47356119 -49.7734375 127.1484375 C-49.08217773 126.49842773 -48.39091797 125.84841797 -47.67871094 125.17871094 C-44.84194306 122.52002363 -41.98589962 119.88266954 -39.125 117.25 C-34.43912496 112.93701399 -29.77655654 108.59997405 -25.125 104.25 C-19.71877363 99.19535345 -14.28187408 94.17775137 -8.8125 89.19140625 C-6.43588117 87.01413175 -4.08943439 84.80701001 -1.75 82.58984375 C-1.07582031 81.95304687 -0.40164062 81.31625 0.29296875 80.66015625 C1.61178405 79.41276615 2.92705883 78.16161913 4.23828125 76.90625 C4.84027344 76.33777344 5.44226563 75.76929688 6.0625 75.18359375 C6.59359375 74.67755615 7.1246875 74.17151855 7.671875 73.65014648 C9.44890213 72.20128761 11.23218904 71.26248983 13.3125 70.3125 C12.3225 68.765625 12.3225 68.765625 11.3125 67.1875 C9.35103475 63.72526952 8.69935049 61.34176818 9.3125 57.3125 C10.27496455 55.62387933 11.27096874 53.95353334 12.3125 52.3125 C-3.01556827 36.37221599 -16.7537814 23.91526853 -39.66796875 22.59375 C-42.6875 22.3125 -42.6875 22.3125 -43.6875 21.3125 C-43.984375 18.96484375 -43.984375 18.96484375 -43.6875 16.3125 C-33.35100469 4.22715321 -15.15174233 -0.25202499 0 0 Z " fill="#FBFAFB" transform="translate(182.6875,118.6875)"/>
<path d="M0 0 C48.18 0 96.36 0 146 0 C144.59721423 12.62507193 139.70670342 23.62767279 129.7890625 31.828125 C121.50697027 38.04622579 111.84453145 42.13267441 101.3745575 42.12025452 C100.47578384 42.12162918 99.57701019 42.12300385 98.65100098 42.12442017 C97.67779907 42.12082489 96.70459717 42.11722961 95.7019043 42.11352539 C94.14999138 42.11374443 94.14999138 42.11374443 92.56672668 42.1139679 C89.15253593 42.11327214 85.73839996 42.10549544 82.32421875 42.09765625 C79.95481903 42.09579088 77.58541892 42.09436754 75.21601868 42.09336853 C68.98370293 42.08955276 62.75141053 42.07973047 56.519104 42.06866455 C50.15792151 42.05843024 43.79673523 42.05386658 37.43554688 42.04882812 C24.95701935 42.03810738 12.47851527 42.02051816 0 42 C0 28.14 0 14.28 0 0 Z " fill="#7B88B6" transform="translate(260,279)"/>
<path d="M0 0 C2.625 0.375 2.625 0.375 5 1 C5.08284422 2.95757823 5.14000133 4.9162454 5.1875 6.875 C5.23970703 8.51082031 5.23970703 8.51082031 5.29296875 10.1796875 C5 14 5 14 2 24 C18.83 24 35.66 24 53 24 C52.01 21.36 51.02 18.72 50 16 C49.41796875 12.2265625 49.41796875 12.2265625 49.1875 8.625 C49.09855469 7.42101562 49.00960937 6.21703125 48.91796875 4.9765625 C49 2 49 2 51 0 C53.625 -0.125 53.625 -0.125 56 0 C57.41001773 2.82003547 57.49621929 5.56089784 57.875 8.6875 C58.24266836 11.12611666 58.61704236 13.56373756 59 16 C59.08894531 16.79535156 59.17789063 17.59070313 59.26953125 18.41015625 C59.61778068 20.59329469 59.61778068 20.59329469 62 23 C65.73741419 23.82205144 69.45489009 24.21276411 73.2578125 24.5546875 C80.55104545 25.42256699 85.78345275 28.89937602 91 34 C95.76935382 40.26225404 98.74740475 46.96539897 98 55 C95.37976446 57.62023554 94.26281929 57.25120855 90.60986328 57.25396729 C89.46567932 57.25960693 88.32149536 57.26524658 87.14263916 57.27105713 C85.88127136 57.26700867 84.61990356 57.26296021 83.3203125 57.25878906 C81.98337615 57.26149803 80.64644129 57.26505843 79.30950928 57.26940918 C75.67320871 57.27854675 72.0370213 57.27498334 68.40071869 57.26865101 C64.60063871 57.26359807 60.80056862 57.26828049 57.00048828 57.27142334 C50.61814631 57.27506505 44.23585058 57.27025853 37.85351562 57.26074219 C30.46785591 57.24985723 23.08230659 57.25338266 15.69664955 57.264395 C9.36286281 57.27346205 3.02910936 57.27475601 -3.30468178 57.26951766 C-7.09081457 57.26639474 -10.87689542 57.26599739 -14.6630249 57.27259064 C-18.22199438 57.27835505 -21.78082108 57.27438396 -25.33977509 57.26280212 C-27.2740611 57.25888278 -29.20835914 57.2648489 -31.14263916 57.27105713 C-32.28682312 57.26541748 -33.43100708 57.25977783 -34.60986328 57.25396729 C-35.60833282 57.25321323 -36.60680237 57.25245918 -37.63552856 57.25168228 C-40 57 -40 57 -42 55 C-42.46463627 46.66752283 -39.42063383 40.42923126 -34.75 33.8125 C-29.03503672 27.96765119 -22.44077753 24.21379749 -14.1171875 23.88671875 C-11.40772334 23.87632439 -8.70788047 23.91185923 -6 24 C-5.814375 22.7315625 -5.814375 22.7315625 -5.625 21.4375 C-5 18 -5 18 -4 14.6875 C-3.01033514 11.03811084 -2.60230868 7.67353352 -2.34375 3.91796875 C-2 2 -2 2 0 0 Z " fill="#FAFBFD" transform="translate(294,336)"/>
<path d="M0 0 C6.41069287 5.27101414 12.18590512 11.09128152 18 17 C16.58261511 20.25207092 14.87473588 22.31361067 12.3125 24.75 C8.94356429 27.96365411 5.90128083 31.37686935 2.85375977 34.89013672 C-0.08108889 38.23044517 -3.13368287 41.45625259 -6.1875 44.6875 C-7.51080806 46.0933817 -8.83371972 47.49963661 -10.15625 48.90625 C-10.8059375 49.5971875 -11.455625 50.288125 -12.125 51 C-16.2948479 55.44783776 -20.41983409 59.93716997 -24.54833984 64.42333984 C-27.029464 67.1181094 -29.51495791 69.80884393 -32 72.5 C-34.97795955 75.72527752 -37.95536883 78.95105166 -40.9296875 82.1796875 C-43.4095131 84.8711754 -45.89343256 87.55884505 -48.37890625 90.24511719 C-49.51846524 91.47872412 -50.65633657 92.71389113 -51.79296875 93.95019531 C-53.65021028 95.96999415 -55.51225616 97.985276 -57.375 100 C-57.94589355 100.62310059 -58.51678711 101.24620117 -59.10498047 101.88818359 C-69.1689418 112.74147522 -69.1689418 112.74147522 -74.609375 113.23828125 C-85.14881343 113.48734758 -85.14881343 113.48734758 -90 109 C-93.97205201 104.70588972 -95.12066302 101.38010929 -95.3125 95.625 C-95.34988281 94.89539063 -95.38726562 94.16578125 -95.42578125 93.4140625 C-94.33549885 87.23246139 -89.06684172 82.78329958 -84.75 78.5625 C-84.21503906 78.02818359 -83.68007812 77.49386719 -83.12890625 76.94335938 C-79.56180636 73.41438763 -75.84932527 70.09508581 -72.05761719 66.81030273 C-68.53753861 63.71331856 -65.15019943 60.47732126 -61.75 57.25 C-55.88579381 51.7065622 -49.98487201 46.2122257 -44.0234375 40.7734375 C-40.4904802 37.54256339 -36.99615063 34.27059253 -33.5 31 C-28.03014897 25.8844713 -22.53111275 20.80344595 -17.00390625 15.75 C-13.59762957 12.63490688 -10.20438135 9.50575219 -6.8125 6.375 C-6.24708496 5.85341309 -5.68166992 5.33182617 -5.09912109 4.79443359 C-2.5174873 2.43086348 -2.5174873 2.43086348 0 0 Z " fill="#8F87AB" transform="translate(201,193)"/>
<path d="M0 0 C1.30824738 -0.00556915 2.61649475 -0.01113831 3.96438599 -0.01687622 C5.41227903 -0.00785405 6.86017026 0.00146373 8.30805969 0.01104736 C9.83410255 0.01025645 11.36014521 0.00815905 12.88618469 0.00485229 C17.02854095 -0.00028198 21.17064883 0.01325267 25.31296515 0.0303793 C29.64333986 0.04540712 33.97371125 0.04424102 38.30410767 0.04504395 C45.57320909 0.04873623 52.84221606 0.06370409 60.11128235 0.08624268 C69.45351945 0.11514959 78.79568061 0.12546887 88.13795757 0.12992477 C96.15843841 0.13389872 104.17890262 0.14639919 112.19937158 0.16027164 C114.78373887 0.16437674 117.36810556 0.16729919 119.95247459 0.17006683 C124.0047241 0.17494712 128.05692715 0.18512889 132.10915375 0.19950485 C133.60034834 0.20404079 135.09154919 0.20686956 136.58275032 0.20791245 C138.60970092 0.2096487 140.63664244 0.2181462 142.66357422 0.22705078 C143.80048045 0.23002544 144.93738668 0.23300011 146.10874462 0.23606491 C148.64131165 0.36749268 148.64131165 0.36749268 149.64131165 1.36749268 C150.95196846 15.22607699 146.93344232 26.36219041 138.64131165 37.36749268 C129.9309167 47.81634483 117.2480146 55.03285868 103.64131165 56.36749268 C100.03727962 56.5286833 96.4355927 56.55510512 92.82832336 56.57623291 C91.22949814 56.59090858 91.22949814 56.59090858 89.59837341 56.60588074 C86.08926117 56.63567407 82.58018624 56.65716582 79.07099915 56.67608643 C77.26961676 56.68594417 77.26961676 56.68594417 75.4318428 56.69600105 C69.08484829 56.7285112 62.73787009 56.75299203 56.39082336 56.77252197 C51.13732206 56.79038769 45.88435217 56.82530498 40.63105774 56.87506104 C34.28167982 56.93511823 27.93279738 56.96597576 21.58314896 56.97569466 C19.16455941 56.98426728 16.74598376 57.00312939 14.32755661 57.03243828 C10.94961379 57.07119907 7.57362189 57.07240777 4.19551086 57.06451416 C2.69609955 57.09451508 2.69609955 57.09451508 1.16639709 57.12512207 C-5.43605795 57.05573296 -5.43605795 57.05573296 -8.10195541 55.0670948 C-10.01715488 52.85986264 -11.24649217 50.90423923 -11.8469696 48.03155518 C-11.68420919 46.14353434 -11.52144877 44.25551351 -11.35868835 42.36749268 C-12.0135321 42.42550049 -12.66837585 42.4835083 -13.34306335 42.54327393 C-22.05465061 42.97393149 -29.45241656 41.00307537 -36.53056335 35.75811768 C-42.61652699 30.08828831 -46.1169783 23.04055367 -46.54618835 14.74249268 C-46.35868835 11.36749268 -46.35868835 11.36749268 -44.35868835 9.36749268 C-41.8494799 9.19253662 -39.45243894 9.13579699 -36.94462585 9.17218018 C-36.21498627 9.17501007 -35.48534668 9.17783997 -34.7335968 9.18075562 C-32.40012808 9.19196266 -30.06704133 9.21706757 -27.73368835 9.24249268 C-26.15296473 9.25252183 -24.57223509 9.26164779 -22.99150085 9.26983643 C-19.11374921 9.29190362 -15.23628357 9.32643653 -11.35868835 9.36749268 C-11.27618835 8.43936768 -11.19368835 7.51124268 -11.10868835 6.55499268 C-10.35868835 3.36749268 -10.35868835 3.36749268 -8.70923138 1.69124222 C-5.6444752 -0.03472899 -3.51258735 -0.00452658 0 0 Z M-3.35868835 7.36749268 C-3.35868835 21.22749268 -3.35868835 35.08749268 -3.35868835 49.36749268 C10.23746548 49.45810814 23.83341649 49.53138997 37.4298048 49.57474136 C43.74415557 49.59555501 50.05828779 49.62375881 56.37251282 49.66925049 C62.47390178 49.71293025 68.57508142 49.73667651 74.67661476 49.74700165 C76.99646102 49.7543534 79.31629671 49.76870897 81.63605309 49.7904129 C99.61782466 49.95185713 115.89563376 48.87610277 129.94599915 36.23077393 C137.75884352 27.64384589 141.37635236 18.75212626 142.64131165 7.36749268 C94.46131165 7.36749268 46.28131165 7.36749268 -3.35868835 7.36749268 Z " fill="#FCFCFD" transform="translate(263.3586883544922,271.63250732421875)"/>
<path d="M0 0 C4.75085867 3.96372525 9.23613112 8.09794782 13.58984375 12.4921875 C14.47392662 13.37839279 14.47392662 13.37839279 15.37586975 14.28250122 C17.23213727 16.14430404 19.08487085 18.00957745 20.9375 19.875 C22.20614672 21.14867011 23.4750249 22.42210971 24.74414062 23.6953125 C27.83210554 26.79422043 30.91690929 29.89624301 34 33 C32.35417714 37.13922888 29.36277105 39.99540069 26.29296875 43.11328125 C25.73055984 43.6870903 25.16815094 44.26089935 24.58869934 44.85209656 C23.40042303 46.05921921 22.20924806 47.26349444 21.01538086 48.46508789 C19.19012508 50.30984687 17.38727986 52.17481734 15.58398438 54.04101562 C14.42580373 55.21224879 13.2663408 56.38221563 12.10546875 57.55078125 C11.56883102 58.11211258 11.0321933 58.67344391 10.47929382 59.25178528 C8.25235546 61.45270388 6.74137804 62.92459304 3.5612793 63.24804688 C-0.33250884 61.35070201 -3.05474797 58.53538876 -6.0859375 55.48046875 C-6.74711578 54.82548904 -7.40829407 54.17050934 -8.08950806 53.49568176 C-9.48118084 52.11110169 -10.86774916 50.72137457 -12.24951172 49.3269043 C-14.37271605 47.1897989 -16.51886235 45.07781598 -18.66796875 42.96679688 C-20.01707724 41.6186392 -21.36478348 40.26907651 -22.7109375 38.91796875 C-23.35662689 38.28553757 -24.00231628 37.65310638 -24.66757202 37.00151062 C-25.25213165 36.40441788 -25.83669128 35.80732513 -26.43896484 35.19213867 C-26.95905121 34.67109055 -27.47913757 34.15004242 -28.01498413 33.61320496 C-29 32 -29 32 -28.82780457 29.98951721 C-27.92144659 27.81120742 -26.99035426 26.62725532 -25.31616211 24.97558594 C-24.47540382 24.13516754 -24.47540382 24.13516754 -23.61766052 23.277771 C-23.01035599 22.68595032 -22.40305145 22.09412964 -21.77734375 21.484375 C-21.15726944 20.86854553 -20.53719513 20.25271606 -19.89833069 19.6182251 C-17.91832095 17.65499365 -15.92813081 15.70245564 -13.9375 13.75 C-12.59241465 12.41996252 -11.24800512 11.08924121 -9.90429688 9.7578125 C-6.61065094 6.49722463 -3.30783661 3.24618812 0 0 Z " fill="#AF8899" transform="translate(229,149)"/>
<path d="M0 0 C0.89481583 -0.00671722 1.78963165 -0.01343445 2.71156311 -0.02035522 C5.67072094 -0.03935717 8.62965213 -0.04326085 11.58886719 -0.04541016 C13.64906914 -0.05183767 15.70927018 -0.058566 17.76947021 -0.06558228 C22.09031286 -0.07756133 26.41107552 -0.08126256 30.73193359 -0.08007812 C36.25778726 -0.07987516 41.78312534 -0.10715162 47.30885696 -0.14162254 C51.56577896 -0.16390786 55.82257734 -0.16791512 60.0795517 -0.16685867 C62.11603315 -0.16921315 64.15251809 -0.17802803 66.18894196 -0.19352341 C69.04429212 -0.2132116 71.89853668 -0.20733363 74.75390625 -0.1953125 C75.58847855 -0.20655151 76.42305084 -0.21779053 77.28291321 -0.22937012 C83.9136213 -0.15875627 89.03061314 1.71890502 94.15917969 5.96630859 C94.60519531 6.50642578 95.05121094 7.04654297 95.51074219 7.60302734 C96.20296875 8.40160156 96.20296875 8.40160156 96.90917969 9.21630859 C98.13574219 11.29052734 98.13574219 11.29052734 100.13574219 18.29052734 C59.21574219 18.29052734 18.29574219 18.29052734 -23.86425781 18.29052734 C-20.48210877 8.1440802 -20.48210877 8.1440802 -16.92675781 5.35302734 C-15.92322266 4.53511719 -15.92322266 4.53511719 -14.89941406 3.70068359 C-9.96197387 0.27953981 -5.95885831 -0.00640933 0 0 Z " fill="#5686C9" transform="translate(283.8642578125,367.70947265625)"/>
<path d="M0 0 C4.126654 2.74397546 7.71784833 6.05419663 11.26171875 9.50390625 C6.74719917 14.90571349 1.98636034 19.96220913 -2.98828125 24.94140625 C-3.70757812 25.67294922 -4.426875 26.40449219 -5.16796875 27.15820312 C-5.85632813 27.84849609 -6.5446875 28.53878906 -7.25390625 29.25 C-7.87555664 29.87575928 -8.49720703 30.50151855 -9.13769531 31.14624023 C-10.73828125 32.50390625 -10.73828125 32.50390625 -12.73828125 32.50390625 C-14.11328125 31.0703125 -14.11328125 31.0703125 -15.73828125 29.06640625 C-27.00718507 15.86502513 -41.00991327 5.47720484 -57.73828125 0.50390625 C-55.12194743 -2.75487253 -52.24097899 -3.4851003 -48.30078125 -4.62109375 C-46.60115234 -5.11996094 -46.60115234 -5.11996094 -44.8671875 -5.62890625 C-43.83464844 -5.91507812 -42.80210937 -6.20125 -41.73828125 -6.49609375 C-41.07183594 -6.69332031 -40.40539062 -6.89054687 -39.71875 -7.09375 C-26.71556938 -9.7354218 -11.50815908 -6.23277207 0 0 Z " fill="#C28991" transform="translate(212.73828125,133.49609375)"/>
<path d="M0 0 C3.63717895 1.95742089 5.73307325 5.42136526 7.73974609 8.9362793 C8.48826194 12.67885853 8.15642195 14.19439302 6.29833984 17.50268555 C2.88734451 22.44832368 -1.5723599 26.5366484 -5.82275391 30.7487793 C-6.68578125 31.61954102 -7.54880859 32.49030273 -8.43798828 33.38745117 C-9.2675 34.21438477 -10.09701172 35.04131836 -10.95166016 35.89331055 C-11.70648682 36.64588135 -12.46131348 37.39845215 -13.23901367 38.17382812 C-15.85147142 40.4518004 -17.99845277 40.88915509 -21.38525391 41.4987793 C-27.19327704 40.65567917 -30.24624546 37.01400217 -34.26025391 32.9362793 C-28.77224168 26.40190623 -22.91924079 20.30651446 -16.91894531 14.24487305 C-15.7208798 13.03008118 -14.52822832 11.809928 -13.34082031 10.5847168 C-11.61490716 8.80435096 -9.8733947 7.04071917 -8.12744141 5.2800293 C-7.59819061 4.72810913 -7.06893982 4.17618896 -6.52365112 3.60754395 C-2.81563017 -0.07937778 -2.81563017 -0.07937778 0 0 Z " fill="#9D88A4" transform="translate(286.26025390625,202.063720703125)"/>
<path d="M0 0 C8.91 0 17.82 0 27 0 C27 5.61 27 11.22 27 17 C12.8095124 17.64502216 12.8095124 17.64502216 7 13 C2.98298665 8.78960745 1.15763949 5.78819743 0 0 Z " fill="#7C88B6" transform="translate(225,289)"/>
<path d="M0 0 C7 6 7 6 9 10 C3.72 15.28 -1.56 20.56 -7 26 C-14 20 -14 20 -16 16 C-10.72 10.72 -5.44 5.44 0 0 Z " fill="#A489A1" transform="translate(262,195)"/>
</svg>
